<svg width="43" height="22" viewBox="0 0 43 22" fill="none" xmlns="http://www.w3.org/2000/svg">
<g clip-path="url(#clip0_312_7)">
<path d="M1.2002 2.20001C0.600195 2.20001 0.200195 1.80001 0.200195 1.20001C0.200195 0.600012 0.700195 0.200012 1.2002 0.200012C1.8002 0.200012 2.2002 0.600012 2.2002 1.20001C2.2002 1.80001 1.8002 2.20001 1.2002 2.20001Z" fill="white"/>
<path d="M0.7998 0.19998C1.2998 0.0999803 1.8998 0.39998 1.9998 0.999981C2.0998 1.49998 1.7998 2.09998 1.1998 2.19998C0.699802 2.29998 0.0998011 1.99998 -0.000198857 1.39998C-0.100199 0.89998 0.2998 0.39998 0.7998 0.19998ZM24.5998 10.3C23.9998 10.3 23.5998 10.7 23.5998 11.3C23.5998 11.9 24.0998 12.3 24.5998 12.3C25.1998 12.3 25.5998 11.9 25.5998 11.3C25.5998 10.8 25.0998 10.3 24.5998 10.3Z" fill="white"/>
<path d="M29.9 16.6C31.6 13.7 34 8.3 34.9 6.2L38.25 13.45L41.6 20.7V20.8H42.5L34.9 4.2L34.5 5.1C34.4 5.4 31.2 12.8 29.1 16.3C27.3 19.4 24.9 20.9 21.6 20.9C17.2 20.9 13.6 17.3 13.6 13C13.6 8.7 17.2 5.1 21.6 5.1C24.3 5.1 26.9 6.5 28.4 8.7H29.4C27.8 5.9 24.9 4.2 21.7 4.3C16.8 4.3 12.8 8.2 12.8 13C12.8 17.8 16.8 21.7 21.7 21.7C25.3 21.6 27.9 20 29.9 16.6ZM1.8 5.5C3.9 6.9 9.7 11.5 11.8 20.6V20.7H12.7V20.5C10.1 9 1.7 4.3 1.6 4.3L1 4V20.8H1.9L1.8 5.5Z" fill="white"/>
</g>
<defs>
<clipPath id="clip0_312_7">
<rect width="43" height="22" fill="white"/>
</clipPath>
</defs>
</svg>
