<svg width="600" height="200" viewBox="0 0 600 200" xmlns="http://www.w3.org/2000/svg">
  <rect width="100%" height="100%" fill="#16181d"/>

  <g fill="none" stroke="#d1d5db" stroke-width="3" stroke-linecap="round" stroke-linejoin="round">
    
    <path d="M 40 70 L 65 130 L 90 88 L 115 130 L 140 70" />

    <path d="M 160 70 L 160 130" />
    <path d="M 210 70 L 210 130" />
    <path d="M 160 100 L 210 100" />

    <path d="M 230 130 L 255 70 L 280 130" />
    <circle cx="255" cy="106" r="4" fill="#d1d5db" stroke="none"/>

    <path d="M 340 70 A 30 30 0 1 0 340 130 L 340 100" />
    <circle cx="340" cy="70" r="4" fill="#d1d5db" stroke="none"/>

    <circle cx="400" cy="100" r="30" />
    <circle cx="400" cy="100" r="4" fill="#d1d5db" stroke="none"/>

    <path d="M 450 130 L 450 70 L 490 130 L 490 70" />

    <path d="M 540 75 C 510 75 510 100 525 100 C 540 100 540 125 510 125" />
    <circle cx="540" cy="75" r="4" fill="#d1d5db" stroke="none"/>
    <circle cx="510" cy="125" r="4" fill="#d1d5db" stroke="none"/>

  </g>
</svg>